# xmcd
#
# Track frame offsets:
#	150
#	19829
#	36046
#	54064
#	70621
#	90931
#	108353
#	128533
#	149960
#	170186
#	187470
#
# Disc length: 3134 seconds
#
# Revision: 0
# Processed by: cddbd v1.5.2PL0 Copyright (c) Steve Scherf et al.
# Submitted via: EasyCDDAExtractor 11.0.3.1
#
DISCID=970c3c0b
DTITLE=Alston - Voodoo for Fun and Profit
DYEAR=2004
DGENRE=
TTITLE0=Recon Seed
TTITLE1=Anna
TTITLE2=Rock Star
TTITLE3=Ordinary
TTITLE4=Why We Fight
TTITLE5=A Gold Guitar
TTITLE6=Orange Freezes
TTITLE7=Rebel Yell
TTITLE8=Carried Away
TTITLE9=2 and Ten Low
TTITLE10=Voodoo for Fun and Profit
EXTD=
EXTT0=
EXTT1=
EXTT2=
EXTT3=
EXTT4=
EXTT5=
EXTT6=
EXTT7=
EXTT8=
EXTT9=
EXTT10=
PLAYORDER=
